<svg width="255" height="321" viewBox="0 0 255 321" fill="none" xmlns="http://www.w3.org/2000/svg">
<g clip-path="url(#clip0_512_5113)">
<path d="M247.602 -25.9066C233.587 -8.67817 214.69 -13.345 196.417 -17.8619C188.479 -19.8206 180.253 -21.8584 172.73 -21.9431C166.168 -22.0203 159.702 -19.3761 155.433 -14.8677C153.725 -13.1226 152.414 -11.0368 151.588 -8.74749C150.761 -6.45818 150.436 -4.01718 150.635 -1.58502C151.533 11.197 157.062 21.9652 167.55 31.3346C187.473 49.0974 212.622 76.1077 201.089 105.467C198.191 112.846 193.836 117.465 188.155 119.163C174.91 123.171 156.899 110.978 143.751 102.082C140.552 99.9097 137.523 97.863 135.011 96.3629C112.455 82.8803 92.3205 98.0385 81.957 115.129C77.2151 122.931 72.8166 131.163 68.5557 139.121C65.471 144.902 62.2792 150.875 58.9821 156.631L58.9141 156.717C54.989 160.161 51.4271 163.943 47.984 167.6C42.9453 172.941 37.742 178.47 31.3119 183.035C4.65925 201.97 -19.7684 208.803 -41.2967 203.339C-50.6467 200.966 -67.3528 194.573 -74.2098 178.397C-78.167 169.066 -76.8384 158.96 -75.5566 149.187C-75.3621 147.72 -75.172 146.265 -74.9996 144.821C-73.1683 129.444 -75.7178 118.485 -83.2677 109.279C-86.2958 105.592 -89.7133 102.42 -93.0212 99.354C-99.1377 93.6828 -104.908 88.2993 -108.406 79.9653C-113.085 68.7815 -112.445 55.3528 -111.875 43.4945C-111.804 41.8843 -111.728 40.2981 -111.661 38.7353C-111.134 25.0869 -110.263 9.28448 -107.088 -5.69039C-106.231 -9.71865 -104.919 -14.2286 -103.504 -19.0428C-98.4727 -36.3078 -92.4483 -57.1242 -103.229 -70.461L-102.946 -71.2239C-91.5617 -57.6865 -97.7211 -36.4442 -102.849 -18.8455C-104.239 -14.0622 -105.555 -9.54045 -106.417 -5.53617C-109.589 9.38197 -110.437 25.1575 -110.98 38.7776C-111.042 40.3379 -111.112 41.9247 -111.19 43.5381C-111.755 55.3357 -112.39 68.6774 -107.772 79.7189C-104.339 87.9355 -98.6112 93.2501 -92.5497 98.8743C-89.2248 101.955 -85.7927 105.137 -82.7335 108.863C-75.0552 118.223 -72.4591 129.337 -74.3186 144.913C-74.4898 146.361 -74.6738 147.82 -74.8705 149.289C-76.1459 158.971 -77.4585 168.985 -73.5743 178.146C-66.8345 194.052 -50.3525 200.354 -41.1262 202.695C-19.8002 208.106 4.43744 201.31 30.9153 182.493C37.2922 177.961 42.48 172.462 47.4887 167.142C50.9289 163.492 54.4893 159.714 58.4242 156.256C61.7046 150.521 64.8837 144.57 67.9558 138.81C72.2171 130.839 76.6144 122.599 81.3715 114.78C87.485 104.713 95.7239 97.0928 104.571 93.3172C114.744 88.9807 125.389 89.8345 135.358 95.7795C137.888 97.2909 140.922 99.3482 144.135 101.521C157.162 110.328 175.01 122.412 187.951 118.514C193.425 116.864 197.627 112.389 200.452 105.209C211.831 76.2426 186.864 49.4597 167.094 31.8334C156.461 22.353 150.856 11.4365 149.95 -1.53089C149.741 -4.05526 150.076 -6.58927 150.935 -8.96556C151.793 -11.3419 153.154 -13.5063 154.929 -15.3158C159.317 -19.9625 165.974 -22.6832 172.729 -22.6016C180.338 -22.5164 188.589 -20.4735 196.548 -18.5114C214.614 -14.0444 233.295 -9.43059 247.037 -26.3241C261.079 -43.5872 263.167 -76.6388 251.342 -94.3408C243.451 -106.145 230.887 -104.136 218.484 -100.2C204.027 -95.5581 189.136 -92.3094 174.018 -90.4992C162.121 -89.1066 150.344 -91.8765 138.953 -94.5397C127.118 -97.2999 114.88 -100.155 102.817 -98.2058C93.4059 -96.6836 85.44 -90.8041 77.7383 -85.125C76.1869 -83.9763 74.5877 -82.7965 73.02 -81.6894C63.093 -74.6789 52.3837 -67.4856 40.2432 -63.7106C13.853 -55.4978 -10.5681 -67.5695 -33.0297 -81.8444C-50.7876 -93.1215 -58.4194 -111.923 -61.6913 -125.709C-62.8926 -130.764 -63.4888 -136.28 -64.0684 -141.62C-64.9123 -149.389 -65.7729 -157.332 -68.4859 -164.439L-68.1355 -165.385C-65.1736 -158.023 -64.2653 -149.768 -63.39 -141.681C-62.8136 -136.368 -62.2196 -130.871 -61.0305 -125.857C-57.7804 -112.207 -50.2299 -93.565 -32.6616 -82.4113C-10.3379 -68.2406 13.919 -56.2383 40.0348 -64.37C52.078 -68.1142 62.7378 -75.2591 72.6307 -82.251C74.1864 -83.3625 75.7867 -84.5331 77.3342 -85.6832C85.0988 -91.4103 93.1332 -97.3402 102.708 -98.8868C114.9 -100.859 127.209 -97.9866 139.112 -95.2147C150.45 -92.5666 162.169 -89.8227 173.943 -91.1893C189.018 -92.9983 203.866 -96.2386 218.282 -100.866C226.661 -103.52 235.123 -105.326 242.248 -102.698C245.882 -101.357 249.172 -98.8676 251.924 -94.753C263.917 -76.7938 261.809 -43.3581 247.602 -25.9066Z" fill="white"/>
<path d="M224.337 -28.6508C213.308 -25.9467 201.255 -30.0011 189.591 -33.9078C173.354 -39.3678 158.012 -44.52 144.983 -33.2464C127.987 -18.5493 133.19 13.7457 140.462 30.6484C142.716 35.9796 145.77 40.9528 149.52 45.3999C151.79 48.0652 154.625 50.0755 157.364 52.0243C159.688 53.6775 162.101 55.3856 164.127 57.476C174.834 63.7376 188.215 78.1759 184.51 90.7544C183.334 94.7405 181.13 97.2003 177.961 98.0635C172.046 99.6705 163.546 95.161 158.151 90.2897C156.071 88.4061 154.057 86.3293 152.109 84.3211C145.619 77.6407 138.915 70.7212 128.748 70.1639C104.526 68.8377 82.4659 90.8271 71.3525 113.208C70.3729 115.171 69.4115 117.117 68.4686 119.046C57.8503 140.627 48.6786 159.264 28.5253 174.571C16.1277 183.992 -15.7099 204.371 -43.6066 190.31C-61.9643 181.058 -60.9055 164.186 -59.8767 147.873C-59.6535 144.335 -59.4241 140.671 -59.3959 137.111C-57.8744 126.08 -56.7229 113.493 -62.4327 103.752C-66.1846 97.3389 -72.2321 93.3028 -78.0835 89.3969C-82.4614 86.4481 -87.0026 83.439 -90.635 79.4044C-104.633 63.8713 -103.841 42.0721 -103.145 22.8433L-103.083 21.0874C-102.485 4.26357 -96.7316 -11.3833 -91.1706 -26.5098C-89.3174 -31.518 -87.4063 -36.6828 -85.7022 -41.9239C-82.6631 -51.1638 -78.8838 -62.6609 -81.5496 -72.462C-83.5381 -79.7411 -89.7944 -84.1299 -96.9988 -87.2764L-96.7599 -87.922C-90.0027 -84.9359 -82.9826 -80.301 -80.895 -72.6296C-78.1728 -62.6387 -81.9872 -51.0345 -85.0686 -41.6679C-86.7752 -36.4811 -88.6816 -31.2924 -90.5298 -26.2734C-96.0734 -11.1938 -101.807 4.39823 -102.402 21.1164L-102.467 22.8709C-103.155 41.9784 -103.94 63.6245 -90.1255 78.9565C-86.556 82.9412 -82.0546 85.9355 -77.7049 88.8384C-71.796 92.7966 -65.6773 96.8724 -61.8392 103.42C-56.0126 113.346 -57.181 126.064 -58.7178 137.161C-58.7456 140.708 -58.975 144.372 -59.1986 147.923C-60.2049 164.004 -61.2565 180.661 -43.2979 189.708C-15.7449 203.598 15.8177 183.375 28.0966 174.03C48.1283 158.807 57.2645 140.242 67.8498 118.737C68.7981 116.811 69.7377 114.858 70.7366 112.892C81.9492 90.3164 104.243 68.1372 128.774 69.484C139.207 70.055 146.013 77.0656 152.591 83.8497C154.534 85.8472 156.537 87.9156 158.605 89.7855C163.867 94.537 172.104 98.9403 177.771 97.4022C180.695 96.6041 182.743 94.2957 183.845 90.5488C187.469 78.3097 174.262 64.1581 163.74 58.0222L163.661 57.9665C161.675 55.9001 159.277 54.2018 156.964 52.5569C154.186 50.5895 151.317 48.5488 148.992 45.8234C145.201 41.3183 142.115 36.2821 139.836 30.8846C132.493 13.8087 127.264 -18.8469 144.527 -33.7748C157.845 -45.3154 174.099 -39.8533 189.805 -34.5714C201.373 -30.6868 213.33 -26.6676 224.166 -29.3233C236.752 -32.409 244.015 -44.8357 245.628 -55.7712C247.425 -67.9637 243.01 -78.5259 233.834 -84.0583C224.06 -89.9313 209.94 -86.9574 198.595 -84.5611C197.504 -84.3275 196.447 -84.0993 195.427 -83.8975C193.118 -83.4152 190.813 -82.9315 188.508 -82.4477C178.972 -80.4066 169.114 -78.302 159.157 -77.8839C151.421 -77.5666 143.846 -79.0004 136.525 -80.389C130.642 -81.5094 124.557 -82.6556 118.449 -82.8853C104.087 -83.4249 92.6178 -78.6285 82.3643 -73.3882C79.2608 -71.7982 76.1876 -70.1436 72.9336 -68.3913C54.1222 -58.2635 34.6714 -47.7889 13.2544 -52.0869C0.194321 -52.0128 -14.8717 -59.6111 -26.9766 -65.7125C-28.8843 -66.6696 -30.7282 -67.6033 -32.4937 -68.4679C-34.9695 -69.6746 -37.6048 -70.829 -40.4019 -72.0475C-49.132 -75.8635 -58.1627 -79.8082 -64.122 -86.3197C-70.5923 -93.4065 -71.8008 -102.732 -72.9681 -111.754C-73.2317 -113.768 -73.4946 -115.857 -73.8125 -117.846C-74.7645 -122.266 -75.4021 -126.913 -76.0346 -131.401C-76.4407 -134.375 -76.8595 -137.375 -77.3717 -140.343L-76.9026 -141.611C-76.2971 -138.235 -75.8277 -134.833 -75.3612 -131.473C-74.7537 -127.002 -74.1023 -122.369 -73.1622 -117.953C-72.8302 -115.941 -72.5648 -113.846 -72.2986 -111.827C-71.1498 -102.915 -69.9611 -93.694 -63.6259 -86.7682C-57.7682 -80.3609 -48.8037 -76.445 -40.1399 -72.6579C-37.3402 -71.434 -34.6875 -70.2777 -32.2052 -69.0641C-30.4397 -68.1995 -28.5885 -67.2854 -26.6841 -66.3072C-14.6425 -60.2425 0.341642 -52.6922 13.3033 -52.7448C34.5473 -48.4928 53.8853 -58.9067 72.5946 -68.9788C75.8515 -70.739 78.9286 -72.392 82.0361 -73.9805C92.3703 -79.28 103.934 -84.0994 118.452 -83.5554C124.629 -83.3272 130.737 -82.1682 136.646 -81.0469C143.928 -79.6636 151.446 -78.2558 159.118 -78.5384C169.016 -78.9521 178.842 -81.046 188.353 -83.092C190.662 -83.5743 192.974 -84.0776 195.28 -84.5388C196.297 -84.746 197.354 -84.9741 198.437 -85.1975C208.561 -87.3372 220.859 -89.9378 230.484 -86.3877C231.769 -85.9176 233.006 -85.3245 234.176 -84.6168C243.606 -78.9508 248.137 -68.1279 246.296 -55.6581C244.324 -42.2359 235.496 -31.3871 224.337 -28.6508Z" fill="white"/>
<path d="M118.475 -65.8643C102.633 -71.7077 84.3399 -63.4565 68.203 -56.1797C63.5279 -54.0711 59.1093 -52.0813 54.9571 -50.518C52.3788 -49.797 49.8377 -49.018 47.3777 -48.2623C37.9497 -45.3632 29.0436 -42.6274 18.2894 -43.2591C4.89792 -44.0499 -7.97284 -48.7174 -20.4228 -53.2385L-23.3961 -54.3352C-37.3506 -59.4113 -53.1601 -65.1716 -65.0593 -52.7698C-72.0577 -45.4706 -76.5608 -36.3573 -80.8804 -27.5319C-82.7465 -23.7112 -84.6992 -19.7669 -86.8106 -16.0411C-94.343 2.20017 -101.109 29.6666 -90.6793 57.1659C-85.6429 66.4407 -78.2455 72.4644 -66.6347 76.7471C-65.4406 77.1876 -64.1434 77.6305 -62.8027 78.0539C-61.5898 78.4435 -60.4651 78.8271 -59.4102 79.2162C-47.7039 83.5342 -42.3905 89.4562 -42.1032 98.4601C-41.889 106.268 -43.6571 115.105 -45.528 124.464C-49.5932 144.754 -53.7808 165.692 -38.4972 179.364C-35.985 181.627 -33.0582 183.394 -29.8776 184.567C-8.66615 192.391 22.8884 172.654 37.5374 156.856C47.5389 146.062 53.1315 133.05 58.5541 120.474C62.6831 110.88 66.9453 100.975 73.1239 92.1018C80.5384 81.4654 90.489 72.716 100.097 64.2806C101.915 62.6861 103.722 61.0895 105.52 59.4908C117.956 48.3765 122.003 39.7263 122.187 23.8747C122.243 19.0041 122.096 14.0585 121.974 9.24206C121.689 -1.27271 121.392 -12.1568 123.086 -22.7245C123.615 -26.0377 124.937 -29.8546 126.34 -33.8905C129.407 -42.7157 132.884 -52.7234 128.449 -59.8597L128.378 -59.935C125.472 -62.4969 122.114 -64.5075 118.475 -65.8643V-65.8643ZM-66.4074 76.1328C-77.8431 71.9147 -85.1359 65.9874 -90.0572 56.915C-100.392 29.6598 -93.6613 2.36268 -86.1948 -15.7251C-84.0931 -19.4366 -82.1495 -23.3932 -80.266 -27.2119C-75.9518 -35.9859 -71.4899 -45.0611 -64.5592 -52.2875C-52.9745 -64.365 -37.3812 -58.6933 -23.6231 -53.6852L-20.6497 -52.5884C-8.15601 -48.0512 4.76649 -43.3646 18.2557 -42.569C29.1344 -41.9313 38.0959 -44.6823 47.59 -47.6014C50.0446 -48.3546 52.5803 -49.1313 55.1789 -49.8581C59.3767 -51.4224 63.8039 -53.4357 68.4899 -55.5492C84.51 -62.7669 102.664 -70.9584 118.243 -65.2118C121.779 -63.8869 125.043 -61.9293 127.868 -59.4382C132.114 -52.5758 128.684 -42.7554 125.675 -34.0868C124.262 -30.0234 122.93 -26.1792 122.405 -22.8024C120.701 -12.1717 120.999 -1.26505 121.286 9.29081C121.419 14.0799 121.548 19.0366 121.492 23.8941C121.315 39.5211 117.323 48.0585 105.053 59.0163C103.26 60.6227 101.45 62.2139 99.633 63.8115C89.9875 72.2865 80.0195 81.0338 72.5573 91.7505C66.3292 100.672 62.047 110.619 57.9093 120.236C52.5135 132.764 46.9411 145.721 37.0185 156.424C22.4937 172.095 -8.74317 191.682 -29.6601 183.967C-32.7586 182.82 -35.6105 181.097 -38.0607 178.894C-53.0552 165.479 -48.8952 144.713 -44.88 124.632C-42.9946 115.233 -41.2174 106.36 -41.4403 98.4778C-41.7736 86.4198 -51.7216 81.3719 -59.1728 78.6234C-60.2396 78.2299 -61.3588 77.8439 -62.5971 77.4494C-63.936 77.0089 -65.2173 76.5718 -66.4074 76.1328Z" fill="white"/>
<path d="M77.2849 -21.8419C68.4285 -25.1087 58.8052 -22.3661 49.4953 -19.7126C46.4924 -18.8592 43.6571 -18.0552 40.8892 -17.4576C27.8412 -14.6532 15.4074 -13.9613 3.95705 -15.4501C-1.22625 -16.1125 -6.35592 -17.5554 -11.2982 -18.9427C-18.7433 -21.0352 -26.44 -23.1939 -34.5324 -22.7548C-45.0356 -22.1823 -54.7353 -15.9328 -63.3603 -4.16431C-69.551 7.05248 -71.1795 16.1235 -68.3641 23.6008C-66.4882 28.5927 -63.2361 31.8822 -58.4278 33.6558C-52.9866 35.6628 -46.4799 35.426 -40.1852 35.1999L-37.6174 35.1065C-29.0625 34.8603 -22.8331 35.6418 -17.4198 37.6385C-11.4492 39.8408 -6.5064 43.5983 -2.27089 49.1448C4.49014 57.9886 7.60755 70.6645 5.84642 82.2212C5.01509 87.7442 0.991918 95.4382 -3.2647 103.58C-12.437 121.118 -22.837 140.997 -9.42717 151.555C-8.66166 152 -7.85851 152.378 -7.02703 152.685C2.43436 156.175 14.1203 149.777 21.498 141.893C29.7406 133.065 33.7334 121.505 36.2817 112.417C40.0843 98.8521 43.6558 87.5987 52.1237 76.6215C55.598 72.1223 59.4226 67.7522 63.1266 63.5245C67.878 58.1045 72.7858 52.5065 77.0274 46.5205C89.3816 29.0261 97.2786 -4.03948 79.8819 -20.6572L79.8031 -20.713C78.9876 -21.14 78.1466 -21.517 77.2849 -21.8419V-21.8419ZM-58.2027 33.023C-62.8159 31.3213 -65.931 28.1624 -67.7478 23.3657C-70.4814 16.083 -68.87 7.19255 -62.8085 -3.80955C-54.3217 -15.3756 -44.7961 -21.5337 -34.5104 -22.0931C-26.5295 -22.5243 -18.8914 -20.3784 -11.4874 -18.2966C-6.51844 -16.9084 -1.38623 -15.46 3.8651 -14.7858C15.4067 -13.299 27.9164 -13.9763 41.0386 -16.7978C43.8308 -17.3998 46.677 -18.2087 49.6867 -19.0685C58.8899 -21.6902 68.3985 -24.4039 77.0518 -21.212C77.8769 -20.9077 78.6823 -20.5526 79.4632 -20.1491C96.5385 -3.78774 88.7045 28.8387 76.4796 46.1184C72.2629 52.0736 67.362 57.6653 62.6273 63.0647C58.9178 67.2949 55.0878 71.6673 51.5925 76.1988C43.0587 87.2806 39.4604 98.5821 35.6358 112.219C33.1095 121.235 29.1609 132.7 21.0098 141.415C13.7852 149.142 2.38665 155.423 -6.78018 152.042C-7.55837 151.753 -8.31205 151.402 -9.03378 150.993C-21.9623 140.821 -11.7035 121.202 -2.6543 103.898C1.63345 95.6972 5.68053 87.963 6.52563 82.3294C8.29836 70.5947 5.13136 57.7227 -1.73714 48.7415C-6.06201 43.0819 -11.1166 39.2476 -17.1946 37.0056C-22.6955 34.9766 -29.0049 34.1789 -37.6499 34.4364C-38.4988 34.4567 -39.3561 34.4874 -40.2228 34.519C-46.4505 34.7476 -52.8889 34.983 -58.2027 33.023Z" fill="white"/>
<path d="M57.0607 4.62374C56.4472 4.39888 55.8221 4.2069 55.1881 4.04864C42.9443 0.950917 28.3469 7.22136 20.26 15.0173L20.2017 15.0892C12.9459 27.9008 23.2995 45.0556 31.5287 52.8534C32.1964 53.25 32.8992 53.5852 33.6281 53.8546C45.4419 58.2122 58.508 43.8307 62.8837 35.1595C65.8534 29.2735 68.2834 19.809 65.3594 12.5762C64.6463 10.7369 63.533 9.07085 62.0988 7.69647C60.6646 6.32209 58.9446 5.27306 57.0607 4.62374V4.62374ZM20.7716 15.4684C28.7326 7.81723 43.0413 1.66695 55.0242 4.69956C55.6345 4.85279 56.2365 5.03775 56.8277 5.25363V5.25363C58.6208 5.87043 60.2581 6.86802 61.6233 8.1755C62.9886 9.48298 64.0482 11.0682 64.7269 12.8186C67.5503 19.8587 65.1789 29.0914 62.2729 34.8542C57.9949 43.3347 45.273 57.4341 33.8612 53.2247C33.1951 52.9764 32.5503 52.6745 31.9333 52.3223C23.9226 44.7162 13.7503 27.9396 20.7716 15.4684V15.4684Z" fill="white"/>
</g>
<defs>
<clipPath id="clip0_512_5113">
<rect width="255" height="321" fill="white"/>
</clipPath>
</defs>
</svg>
