<svg width="255" height="321" viewBox="0 0 255 321" fill="none" xmlns="http://www.w3.org/2000/svg">
<g clip-path="url(#clip0_510_5098)">
<path d="M253.339 67.5922C248.064 83.0402 233.847 84.6359 220.098 86.1761C214.126 86.8477 207.936 87.5378 202.728 89.3956C198.184 91.0139 194.4 94.4839 192.604 98.6796C191.871 100.318 191.499 102.09 191.512 103.879C191.525 105.667 191.923 107.433 192.68 109.059C196.555 117.643 203.109 123.659 212.727 127.447C230.987 134.619 255.206 146.835 254.733 170.014C254.614 175.841 252.788 180.134 249.304 182.752C241.193 188.889 225.669 185.07 214.339 182.285C211.58 181.603 208.97 180.963 206.856 180.569C187.871 177.019 177.85 192.598 175.058 207.02C173.777 213.608 172.841 220.403 171.93 226.975C171.276 231.747 170.597 236.678 169.79 241.486L169.765 241.563C167.936 244.937 166.443 248.452 165.001 251.85C162.887 256.815 160.708 261.953 157.438 266.738C143.885 286.581 128.784 297.514 112.55 299.231C105.499 299.976 92.3526 299.824 83.5048 290.418C78.3999 284.993 76.7416 277.686 75.1363 270.622C74.8967 269.561 74.6571 268.51 74.4082 267.47C71.7541 256.402 67.205 249.496 59.6549 245.072C56.628 243.301 53.4637 241.984 50.4022 240.713C44.7407 238.361 39.391 236.12 34.8565 231.265C28.7824 224.746 25.8031 215.324 23.1756 207.004C22.8144 205.875 22.4626 204.762 22.1108 203.668C18.9975 194.124 15.5732 183.007 13.9481 171.874C13.513 168.878 13.2685 165.435 13.0178 161.755C12.0891 148.57 10.9404 132.684 0.110991 126.235L0.111299 125.637C11.4085 132.071 12.5726 148.285 13.5198 161.724C13.7799 165.376 14.0245 168.829 14.4501 171.809C16.0628 182.902 19.4965 193.995 22.5911 203.524C22.946 204.615 23.302 205.727 23.659 206.859C26.274 215.137 29.2347 224.497 35.2308 230.933C39.6906 235.724 44.9935 237.929 50.6051 240.263C53.6822 241.54 56.859 242.86 59.9171 244.649C67.595 249.146 72.2157 256.148 74.9009 267.36C75.152 268.402 75.3967 269.455 75.6352 270.518C77.2219 277.518 78.8678 284.756 83.8792 290.083C92.5774 299.333 105.546 299.48 112.503 298.743C128.585 297.042 143.564 286.183 157.026 266.465C160.269 261.717 162.445 256.604 164.543 251.66C165.985 248.268 167.477 244.756 169.31 241.37C170.11 236.58 170.786 231.667 171.437 226.914C172.345 220.333 173.278 213.531 174.566 206.929C176.217 198.431 179.956 191.079 185.094 186.222C191.003 180.641 198.56 178.519 206.947 180.078C209.076 180.476 211.692 181.121 214.461 181.801C225.685 184.555 241.069 188.34 248.998 182.356C252.352 179.825 254.109 175.669 254.228 169.999C254.695 147.13 230.659 135.024 212.54 127.907C202.794 124.079 196.149 117.981 192.222 109.271C191.434 107.584 191.02 105.751 191.007 103.895C190.993 102.038 191.38 100.199 192.143 98.499C193.985 94.1775 197.881 90.6062 202.56 88.9418C207.827 87.0625 214.036 86.3694 220.023 85.6948C233.617 84.173 247.671 82.5957 252.843 67.4483C258.127 51.9696 251.148 28.6504 238.486 19.4578C230.039 13.3295 221.889 17.9148 214.34 23.7877C205.555 30.6702 196.116 36.7029 186.154 41.8017C178.306 45.7921 169.481 46.8821 160.949 47.9475C152.087 49.059 142.922 50.2075 135.102 54.6241C129.001 58.0707 125.006 64.1534 121.143 70.0305C120.366 71.2176 119.564 72.4384 118.765 73.601C113.707 80.9629 108.155 88.6501 100.747 94.3451C84.6438 106.729 64.7319 104.627 45.6099 100.506C30.4944 97.2544 20.4437 86.236 14.6763 77.5642C12.5607 74.3854 10.7446 70.7343 8.98466 67.1997C6.42412 62.0587 3.80749 56.8013 0.127017 52.593L0.127399 51.851C4.0448 56.1725 6.77356 61.6323 9.4369 66.9848C11.1875 70.501 12.9974 74.1399 15.0943 77.2941C20.8119 85.877 30.7659 96.8066 45.7193 100.022C64.7197 104.105 84.5007 106.202 100.435 93.9435C107.784 88.2946 113.314 80.6534 118.354 73.313C119.143 72.1504 119.948 70.9357 120.722 69.7486C124.617 63.8224 128.646 57.6876 134.853 54.1826C142.757 49.7169 151.975 48.5623 160.887 47.4416C169.379 46.3793 178.157 45.2862 185.927 41.345C195.859 36.2581 205.271 30.242 214.031 23.3801C219.131 19.4157 224.506 16.0154 230.088 16.0125C232.934 16.011 235.837 16.8895 238.783 19.0253C251.625 28.3527 258.688 51.9418 253.339 67.5922Z" fill="#3B6149"/>
<path d="M236.6 71.6269C229.685 76.3005 220.342 76.5752 211.305 76.8528C198.72 77.2241 186.83 77.5798 180.719 88.6709C172.744 103.133 184.558 124.073 193.876 133.875C196.789 136.976 200.161 139.627 203.879 141.738C206.123 142.997 208.589 143.661 210.975 144.307C212.998 144.855 215.096 145.418 217.026 146.343C226.003 147.933 238.906 154.479 239.555 164.095C239.76 167.143 238.867 169.4 236.902 170.802C233.233 173.417 226.224 172.473 221.264 170.488C219.35 169.72 217.432 168.801 215.577 167.913C209.402 164.96 203.017 161.897 195.866 164.102C178.828 169.357 169.22 190.137 167.258 208.398C167.083 210.001 166.916 211.587 166.757 213.157C164.933 230.741 163.357 245.926 153.361 261.613C147.213 271.266 130.454 293.426 107.639 290.838C92.6255 289.134 89.0581 277.232 85.6121 265.723C84.865 263.227 84.0899 260.643 83.2025 258.181C81.4417 250.188 79.0297 241.217 72.6119 235.955C68.3916 232.489 63.1942 231.247 58.1651 230.045C54.3956 229.127 50.4983 228.209 46.9663 226.352C33.3588 219.209 28.3526 203.977 23.9347 190.543L23.53 189.316C19.6569 177.565 19.6383 165.312 19.6194 153.467C19.6215 149.542 19.6235 145.494 19.4635 141.446C19.2052 134.302 18.8824 125.413 14.5481 119.334C11.323 114.822 5.89177 113.39 0.123205 113.056L0.123465 112.55C5.54278 112.887 11.5634 114.295 14.9567 119.052C19.3783 125.247 19.7042 134.219 19.9655 141.462C20.11 145.472 20.1173 149.535 20.1215 153.466C20.1403 165.275 20.159 177.485 24.0071 189.163L24.4088 190.389C28.8017 203.738 33.7738 218.862 47.2035 225.914C50.6794 227.752 54.5455 228.67 58.2838 229.563C63.3659 230.787 68.6226 232.039 72.9364 235.575C79.482 240.935 81.9158 250.001 83.6828 258.043C84.5671 260.495 85.3422 263.08 86.0924 265.585C89.4948 276.929 93.0124 288.68 107.698 290.344C130.233 292.902 146.842 270.92 152.928 261.35C162.861 245.752 164.431 230.625 166.252 213.102C166.415 211.532 166.565 209.947 166.753 208.337C168.733 189.916 178.454 168.947 195.71 163.627C203.049 161.363 209.527 164.463 215.79 167.465C217.638 168.347 219.546 169.263 221.448 170.025C226.286 171.961 233.087 172.899 236.602 170.395C238.415 169.1 239.239 166.987 239.044 164.123C238.425 154.761 225.716 148.368 216.898 146.818L216.829 146.8C214.934 145.881 212.848 145.321 210.834 144.776C208.418 144.127 205.92 143.451 203.623 142.164C199.862 140.024 196.451 137.338 193.505 134.197C184.093 124.294 172.171 103.112 180.27 88.4228C186.512 77.074 199.11 76.6996 211.284 76.3407C220.249 76.0724 229.517 75.7978 236.31 71.207C244.202 65.8736 246.044 55.4562 244.371 47.5059C242.504 38.642 236.77 32.4846 229.034 31.0075C220.8 29.4479 211.823 35.0947 204.611 39.6366C203.919 40.0755 203.248 40.502 202.596 40.901C201.127 41.8216 199.661 42.7423 198.195 43.663C192.14 47.4991 185.88 51.461 179.121 54.2855C173.869 56.4746 168.281 57.4157 162.88 58.3231C158.539 59.049 154.051 59.8087 149.781 61.2061C139.742 64.4923 133.057 70.7204 127.322 76.945C125.587 78.8317 123.89 80.7552 122.093 82.7922C111.703 94.5663 100.961 106.742 85.1002 109.234C76.1148 112.612 63.7922 111.211 53.8924 110.087C52.3334 109.913 50.8243 109.739 49.3868 109.593C47.3726 109.392 45.2616 109.267 43.0227 109.139C36.0319 108.732 28.8009 108.313 23.0337 105.341C16.7677 102.103 13.5591 95.9813 10.4564 90.0587C9.76169 88.7375 9.04833 87.3641 8.32245 86.0735C6.54026 83.2687 4.91722 80.2277 3.33779 77.294C2.30042 75.3474 1.24746 73.3855 0.13835 71.4696L0.138861 70.4761C1.41622 72.6495 2.60622 74.8751 3.78379 77.073C5.3414 80.0006 6.97069 83.0293 8.74352 85.8341C9.48499 87.1369 10.2015 88.5134 10.8993 89.8377C13.9615 95.6898 17.1296 101.744 23.2616 104.906C28.9321 107.831 36.1101 108.247 43.048 108.652C45.2899 108.782 47.4134 108.904 49.4339 109.108C50.8713 109.255 52.3804 109.414 53.9426 109.603C63.7894 110.717 76.0433 112.106 84.9663 108.768C100.696 106.289 111.376 94.1832 121.71 82.4735C123.507 80.4304 125.207 78.5069 126.945 76.6202C132.72 70.3343 139.465 64.0662 149.613 60.7432C153.93 59.3273 158.436 58.5706 162.796 57.8386C168.169 56.9374 173.71 55.9932 178.928 53.844C185.646 51.0379 191.888 47.0913 197.924 43.2583C199.393 42.3377 200.859 41.4017 202.331 40.4963C202.98 40.0943 203.651 39.6678 204.34 39.2381C210.775 35.1841 218.592 30.2586 226.132 30.2547C227.138 30.2514 228.141 30.3454 229.128 30.5353C237.073 32.0398 242.954 38.3474 244.86 47.4137C246.92 57.1698 243.597 66.898 236.6 71.6269Z" fill="#3B6149"/>
<path d="M154.135 72.9338C141.724 72.9402 131.214 83.2885 121.941 92.4157C119.255 95.0603 116.716 97.5576 114.251 99.6931C112.657 100.847 111.104 102.031 109.6 103.179C103.839 107.579 98.3951 111.734 90.8197 114.037C81.3856 116.903 71.323 116.963 61.5879 117.018L59.2586 117.019C48.3447 117.073 35.9777 117.129 30.9327 128.71C27.9669 135.525 27.1835 142.955 26.4533 150.14C26.1399 153.25 25.7983 156.466 25.2915 159.573C24.7446 174.068 27.0758 194.728 41.271 211.031C47.1057 216.142 53.7401 218.411 62.836 218.406C63.7715 218.406 64.7787 218.381 65.8109 218.331C66.7463 218.291 67.6195 218.269 68.4458 218.269C77.6165 218.264 82.7883 220.993 85.2797 227.128C87.4161 232.456 88.448 238.999 89.542 245.929C91.9073 260.953 94.3533 276.455 108.373 281.989C110.682 282.909 113.149 283.381 115.641 283.38C132.258 283.372 148.986 261.727 155.062 247.103C159.208 237.114 159.75 226.719 160.285 216.667C160.688 209.001 161.104 201.086 163.103 193.395C165.506 184.173 170.138 175.606 174.614 167.343C175.46 165.781 176.3 164.219 177.132 162.659C182.876 151.829 183.462 144.834 179.551 133.859C178.349 130.486 176.989 127.114 175.677 123.824C172.803 116.648 169.826 109.219 168.302 101.502C167.823 99.0829 167.762 96.1147 167.701 92.9747C167.568 86.1092 167.416 78.3238 162.541 74.5332L162.472 74.4995C159.816 73.4732 156.989 72.9423 154.135 72.9338V72.9338ZM62.8363 217.925C53.8776 217.93 47.3398 215.701 41.636 210.699C27.5686 194.541 25.2561 174.006 25.7967 159.634C26.3003 156.54 26.6325 153.317 26.9584 150.204C27.698 143.056 28.4626 135.663 31.4004 128.915C36.3111 117.638 48.5066 117.576 59.2676 117.525L61.597 117.524C71.3664 117.469 81.4695 117.409 90.9723 114.522C98.635 112.19 104.113 108.011 109.915 103.58C111.415 102.436 112.966 101.255 114.572 100.092C117.068 97.9438 119.607 95.428 122.3 92.7773C131.506 83.7207 141.936 73.4491 154.141 73.4428C156.916 73.4556 159.665 73.974 162.247 74.9718C166.923 78.6215 167.059 86.2659 167.193 93.0087C167.254 96.1701 167.315 99.1598 167.812 101.622C169.346 109.385 172.329 116.829 175.216 124.033C176.527 127.301 177.878 130.686 179.077 134.049C182.935 144.868 182.358 151.771 176.69 162.451C175.863 164.015 175.02 165.573 174.174 167.138C169.683 175.438 165.038 184.007 162.623 193.297C160.602 201.034 160.183 208.982 159.78 216.667C159.251 226.679 158.709 237.031 154.594 246.938C148.572 261.442 132.025 282.903 115.638 282.911C113.21 282.909 110.805 282.448 108.554 281.553C94.7994 276.124 92.3782 260.747 90.0316 245.879C88.9376 238.919 87.9026 232.349 85.7413 226.971C82.4402 218.743 74.2958 217.796 68.4585 217.799C67.6228 217.8 66.7528 217.819 65.7986 217.862C64.7633 217.9 63.7686 217.925 62.8363 217.925Z" fill="#3B6149"/>
<path d="M136.949 113.776C130.011 113.78 124.075 118.122 118.332 122.323C116.479 123.676 114.729 124.952 112.973 126.069C104.691 131.326 96.2951 134.97 88.0215 136.86C84.2791 137.724 80.375 138.036 76.6142 138.338C70.9482 138.792 65.0919 139.264 59.6244 141.628C52.5288 144.698 47.4333 151.477 44.4844 161.788C43.0732 171.098 44.261 177.767 48.1066 182.205C50.6714 185.169 53.7514 186.608 57.5183 186.607C61.7809 186.604 66.2066 184.784 70.4889 183.024L72.2354 182.306C78.0709 179.957 82.5648 178.909 86.8056 178.907C91.4829 178.905 95.8478 180.236 100.181 182.982C107.095 187.357 112.473 195.302 114.202 203.718C115.036 207.738 114.222 214.067 113.361 220.765C111.504 235.193 109.397 251.547 121.332 255.411C121.973 255.523 122.623 255.579 123.274 255.578C130.686 255.574 137.114 248.187 140.192 240.872C143.626 232.687 143.435 223.699 142.877 216.785C142.043 206.464 141.639 197.795 144.682 188.07C145.931 184.083 147.455 180.096 148.932 176.238C150.827 171.291 152.785 166.181 154.184 160.974C158.246 145.766 155.268 120.957 139.041 113.931L138.973 113.913C138.302 113.826 137.626 113.781 136.949 113.776V113.776ZM57.5123 186.113C53.8982 186.115 50.946 184.73 48.4716 181.886C44.7319 177.561 43.5784 171.021 44.9552 161.892C47.8603 151.756 52.8592 145.084 59.8081 142.079C65.2008 139.748 71.0134 139.282 76.6483 138.832C80.4277 138.523 84.335 138.215 88.1273 137.342C96.4633 135.427 104.916 131.774 113.244 126.486C115.016 125.36 116.772 124.077 118.628 122.718C124.305 118.566 130.17 114.273 136.949 114.27C137.595 114.269 138.241 114.309 138.882 114.388C154.822 121.319 157.731 145.809 153.704 160.836C152.314 166.016 150.359 171.12 148.47 176.048C146.99 179.91 145.463 183.9 144.208 187.914C141.147 197.728 141.544 206.436 142.381 216.813C142.936 223.672 143.134 232.583 139.734 240.667C136.721 247.835 130.462 255.069 123.281 255.072C122.671 255.071 122.062 255.021 121.46 254.923C109.956 251.203 112.031 235.064 113.863 220.829C114.73 214.082 115.55 207.719 114.698 203.62C112.931 195.078 107.469 187.01 100.446 182.568C96.0226 179.767 91.5611 178.411 86.7996 178.413C82.4902 178.416 77.937 179.473 72.0424 181.852C71.4622 182.083 70.879 182.322 70.2895 182.565C66.0541 184.308 61.6751 186.111 57.5123 186.113Z" fill="#3B6149"/>
<path d="M129.747 137.174C129.266 137.175 128.786 137.202 128.309 137.255C119.079 138.238 110.611 146.279 107.022 153.714L107 153.778C105.261 164.459 116.768 173.649 124.428 176.929C124.99 177.033 125.559 177.085 126.131 177.085C135.386 177.08 140.731 163.837 141.539 156.744C142.087 151.929 141.352 144.785 137.494 140.543C136.533 139.457 135.342 138.592 134.003 138.009C132.664 137.427 131.211 137.142 129.747 137.174V137.174ZM107.489 153.894C111.029 146.591 119.328 138.707 128.362 137.745C128.822 137.695 129.284 137.67 129.746 137.668V137.668C131.14 137.636 132.523 137.907 133.797 138.461C135.071 139.014 136.206 139.837 137.119 140.871C140.859 145.006 141.576 151.976 141.04 156.689C140.251 163.625 135.071 176.587 126.131 176.591C125.608 176.59 125.087 176.546 124.572 176.46C117.112 173.256 105.825 164.281 107.489 153.894V153.894Z" fill="#3B6149"/>
</g>
<defs>
<clipPath id="clip0_510_5098">
<rect width="255" height="321" fill="white"/>
</clipPath>
</defs>
</svg>
