<svg width="280" height="274" viewBox="0 0 280 274" fill="none" xmlns="http://www.w3.org/2000/svg">
<g clip-path="url(#clip0_512_5106)">
<path d="M84.9495 323.247C106.547 324.815 115.861 308.262 124.864 292.253C128.778 285.3 132.827 278.091 137.794 272.687C142.124 267.972 148.322 265.146 154.376 265.129C156.756 265.083 159.113 265.547 161.291 266.492C163.468 267.436 165.418 268.839 167.012 270.608C175.488 279.799 179.439 290.934 179.083 304.658C178.383 330.704 180.755 366.653 209.307 378.102C216.483 380.981 222.673 380.977 227.675 378.075C239.371 371.344 242.749 350.384 245.217 335.087C245.813 331.36 246.384 327.837 246.998 325.048C252.497 299.996 276.713 295.829 295.773 299.901C304.481 301.752 313.265 304.134 321.762 306.431C327.928 308.108 334.302 309.836 340.592 311.345L340.699 311.354C345.767 310.869 350.832 310.869 355.729 310.869C362.888 310.862 370.291 310.863 377.829 309.348C409.082 303.077 430.257 290.289 440.763 271.332C445.326 263.099 451.95 246.948 445.046 231.25C441.065 222.194 433.002 216.375 425.207 210.746C424.035 209.903 422.875 209.064 421.735 208.221C409.593 199.232 403.516 190.087 402.024 178.561C401.43 173.941 401.461 169.389 401.494 164.987C401.555 156.845 401.588 149.141 398.008 141.078C393.194 130.269 383.232 121.738 374.431 114.207C373.24 113.18 372.064 112.173 370.909 111.175C360.867 102.416 349.064 92.4602 336.31 84.6959C332.877 82.6095 328.799 80.5236 324.435 78.3077C308.815 70.3301 290.009 60.6817 287.743 44.0955L287.013 43.7855C289.017 60.9356 308.216 70.773 324.137 78.9054C328.462 81.1185 332.552 83.2092 335.971 85.2762C348.683 93.0045 360.451 102.959 370.484 111.687C371.633 112.687 372.806 113.699 374.004 114.723C382.759 122.216 392.656 130.693 397.41 141.364C400.95 149.302 400.896 156.929 400.839 165.001C400.804 169.425 400.77 173.994 401.371 178.661C402.886 190.382 409.043 199.664 421.344 208.766C422.487 209.614 423.646 210.459 424.821 211.302C432.547 216.874 440.534 222.643 444.444 231.534C451.234 246.968 444.695 262.899 440.191 271.022C429.784 289.8 408.762 302.478 377.709 308.704C370.23 310.203 362.859 310.211 355.735 310.21C350.845 310.213 345.783 310.215 340.699 310.698C334.434 309.191 328.085 307.468 321.943 305.797C313.436 303.492 304.646 301.102 295.916 299.251C284.683 296.859 273.768 297.615 265.175 301.377C255.299 305.705 248.792 313.841 246.352 324.904C245.734 327.714 245.167 331.247 244.563 334.985C242.111 350.136 238.765 370.907 227.35 377.497C222.521 380.283 216.536 380.275 209.55 377.477C181.38 366.18 179.047 330.514 179.742 304.668C180.116 290.767 176.11 279.479 167.509 270.157C165.856 268.319 163.833 266.862 161.572 265.882C159.311 264.901 156.865 264.42 154.394 264.471C148.163 264.48 141.783 267.391 137.327 272.246C132.303 277.711 128.24 284.942 124.315 291.912C115.415 307.74 106.208 324.104 85.0305 322.566C63.3904 320.993 38.528 300.36 33.8608 280.11C30.7526 266.603 40.5743 259.018 51.657 252.836C64.6126 245.669 76.8695 237.26 88.257 227.726C97.1952 220.203 103.098 209.98 108.819 200.102C114.767 189.843 120.918 179.235 130.362 171.967C137.732 166.297 147.229 164.57 156.408 162.896C158.26 162.562 160.166 162.215 162 161.842C173.611 159.478 185.874 156.681 196.667 150.578C220.132 137.319 227.88 111.884 232.753 86.3684C236.612 66.2015 228.363 48.1961 220.76 36.645C217.974 32.409 214.456 28.294 211.051 24.3081C206.1 18.5098 201.035 12.5825 197.802 5.89914L196.896 5.51454C200.144 12.5464 205.398 18.7158 210.555 24.7495C213.942 28.7144 217.448 32.8154 220.214 37.0159C227.734 48.4599 235.925 66.301 232.105 86.2507C227.249 111.599 219.562 136.87 196.338 149.989C185.632 156.043 173.436 158.837 161.861 161.19C160.033 161.551 158.132 161.905 156.281 162.236C147.027 163.921 137.448 165.663 129.952 171.433C120.404 178.778 114.219 189.449 108.233 199.763C102.537 209.593 96.6549 219.758 87.817 227.211C76.4595 236.715 64.237 245.099 51.319 252.248C43.8356 256.426 36.899 261.232 34.004 268.054C32.5275 271.534 32.0967 275.539 33.179 280.248C37.9172 300.789 63.0657 321.665 84.9495 323.247Z" fill="white"/>
<path d="M98.5477 304.878C107.838 298.849 113.013 287.569 118.033 276.666C125.006 261.472 131.6 247.121 148.31 245.405C170.102 243.161 189.555 268.47 196.698 284.949C198.976 290.119 200.467 295.617 201.119 301.258C201.494 304.655 201.027 308.015 200.581 311.266C200.201 314.024 199.802 316.881 199.932 319.721C197.224 331.52 198.534 350.692 209.94 356.476C213.557 358.308 216.776 358.387 219.506 356.712C224.6 353.584 227.078 344.525 227.224 337.432C227.277 334.693 227.148 331.872 227.024 329.143C226.617 320.061 226.184 310.666 232.581 303.067C247.825 284.965 278.179 284.002 301.496 291.08C303.544 291.697 305.568 292.316 307.568 292.937C329.986 299.832 349.347 305.785 373.682 301.705C388.655 299.199 424.399 290.209 433.057 260.974C438.754 241.735 426.067 231.197 413.797 221.012C411.136 218.803 408.381 216.515 405.835 214.152C396.985 207.852 387.279 200.247 384.178 189.671C382.132 182.713 383.307 175.714 384.444 168.941C385.276 163.857 386.174 158.616 385.736 153.334C384.061 132.991 368.054 118.967 353.936 106.594L352.648 105.463C340.303 94.6295 325.349 88.248 310.893 82.0779C306.099 80.0435 301.155 77.9456 296.295 75.6495C287.703 71.6262 277.015 66.6185 271.837 58.1652C267.998 51.8809 269.062 44.4977 271.642 37.2718L271.024 37.0096C268.629 43.8102 267.229 51.901 271.281 58.5183C276.556 67.1386 287.344 72.1931 296.053 76.2711C300.876 78.529 305.834 80.6464 310.633 82.6915C325.044 88.8426 339.945 95.2018 352.213 105.966L353.503 107.094C367.529 119.392 383.423 133.319 385.078 153.397C385.522 158.6 384.64 163.803 383.794 168.837C382.656 175.685 381.462 182.761 383.546 189.87C386.7 200.654 396.511 208.334 405.417 214.668C407.954 217.021 410.709 219.31 413.379 221.527C425.47 231.574 437.999 241.973 432.423 260.79C423.874 289.667 388.424 298.566 373.585 301.039C349.391 305.089 330.104 299.158 307.762 292.291C305.761 291.675 303.747 291.037 301.683 290.431C278.162 283.293 247.517 284.295 232.082 302.63C225.516 310.427 225.945 319.956 226.367 329.17C226.487 331.888 226.617 334.696 226.563 337.417C226.42 344.336 224.043 353.137 219.164 356.135C216.643 357.679 213.636 357.59 210.239 355.865C199.128 350.251 197.904 331.395 200.579 319.811L200.592 319.717C200.452 316.923 200.848 314.083 201.226 311.338C201.686 308.047 202.153 304.643 201.772 301.166C201.106 295.457 199.593 289.894 197.284 284.662C190.066 268.017 170.374 242.448 148.24 244.727C131.147 246.469 124.163 261.677 117.419 276.374C112.447 287.195 107.311 298.382 98.185 304.306C87.5836 311.186 73.9074 308.032 65.0654 301.86C55.2074 294.979 50.6585 284.773 52.8618 274.549C55.2229 263.673 66.7692 255.628 76.0517 249.168C76.9464 248.549 77.8147 247.951 78.6396 247.361C80.525 246.043 82.4088 244.728 84.2925 243.414C92.1136 238.002 100.195 232.405 107.146 225.608C112.54 220.323 116.584 213.979 120.49 207.847C123.625 202.916 126.878 197.824 130.796 193.33C140.01 182.761 151.079 177.82 161.651 174.04C164.854 172.898 168.082 171.821 171.501 170.681C191.261 164.089 211.696 157.275 222.955 139.177C231.735 129.945 236.407 114.153 240.163 101.467C240.758 99.4708 241.328 97.5355 241.893 95.7022C242.691 93.1351 243.632 90.4896 244.636 87.6863C247.76 78.9283 250.994 69.8704 250.353 61.2777C249.644 51.9369 243.83 44.8373 238.205 37.9706C236.951 36.4356 235.644 34.8508 234.444 33.2937C231.941 29.6593 229.069 26.097 226.304 22.6436C224.464 20.3652 222.614 18.0598 220.848 15.7096L219.635 15.1946C221.627 17.8841 223.729 20.4939 225.803 23.0742C228.571 26.4977 231.426 30.0613 233.933 33.6842C235.14 35.2668 236.45 36.857 237.706 38.3974C243.266 45.178 249.019 52.1931 249.703 61.3302C250.338 69.7809 247.128 78.7725 244.028 87.4641C243.026 90.2729 242.074 92.932 241.277 95.5082C240.712 97.3415 240.124 99.2689 239.546 101.277C235.805 113.893 231.154 129.595 222.455 138.772C211.279 156.715 190.963 163.49 171.31 170.047C167.884 171.184 164.654 172.264 161.45 173.41C150.782 177.208 139.633 182.201 130.318 192.884C126.353 197.426 123.094 202.542 119.942 207.493C116.058 213.594 112.034 219.879 106.706 225.143C99.7993 231.9 91.7464 237.482 83.9388 242.872C82.0534 244.191 80.1509 245.497 78.2826 246.827C77.4556 247.412 76.5873 248.01 75.7055 248.63C67.4212 254.393 57.3567 261.394 53.4461 270.61C52.9211 271.838 52.5159 273.114 52.2365 274.419C49.9585 284.912 54.615 295.375 64.6991 302.411C75.5467 309.991 89.1483 310.977 98.5477 304.878Z" fill="white"/>
<path d="M142.861 204.738C149.297 189.568 167.38 182.089 183.329 175.49C187.95 173.578 192.316 171.769 196.2 169.865C198.435 168.515 200.686 167.23 202.866 165.987C211.225 161.227 219.118 156.728 225.856 148.662C234.243 138.616 239.529 126.345 244.638 114.471L245.846 111.624C251.567 98.3099 258.041 83.2194 274.797 83.0616C284.656 82.9724 294.136 85.8705 303.289 88.7063C307.248 89.9367 311.354 91.1885 315.41 92.181C333.395 99.0345 357.417 112.606 369.973 138.42C373.193 148.206 372.527 157.494 367.809 168.612C367.324 169.756 366.772 170.974 366.177 172.21C365.643 173.333 365.164 174.389 364.735 175.399C359.979 186.608 360.633 194.347 366.834 200.577C372.234 205.954 379.69 210.611 387.586 215.544C404.708 226.232 422.373 237.268 421.868 257.279C421.796 260.579 421.094 263.841 419.802 266.887C411.184 287.198 376.085 296.416 355.079 296.255C340.732 296.14 327.757 291.407 315.204 286.846C305.633 283.36 295.753 279.761 285.324 278.214C272.817 276.366 259.956 277.583 247.546 278.767C245.2 278.992 242.858 279.208 240.522 279.416C224.32 280.817 215.475 277.904 204.097 267.427C200.601 264.208 197.188 260.794 193.85 257.484C186.574 250.245 179.045 242.751 170.41 236.883C167.704 235.042 164.11 233.427 160.307 231.723C151.992 227.997 142.563 223.771 140.459 215.844L140.454 215.743C140.576 211.964 141.392 208.232 142.861 204.738V204.738ZM367.221 168.363C371.868 157.413 372.533 148.263 369.379 138.695C356.933 113.111 333.055 99.6277 315.223 92.8302C311.183 91.8402 307.075 90.5739 303.105 89.3571C293.993 86.5518 284.568 83.6499 274.806 83.7398C258.489 83.8911 252.097 98.7687 246.459 111.898L245.251 114.745C240.124 126.661 234.817 138.981 226.368 149.1C219.552 157.258 211.61 161.786 203.194 166.58C201.019 167.821 198.773 169.103 196.521 170.464C192.605 172.4 188.217 174.2 183.585 176.116C167.756 182.671 149.809 190.091 143.479 205.009C142.057 208.409 141.266 212.038 141.147 215.713C143.182 223.323 152.447 227.457 160.612 231.12C164.441 232.835 168.061 234.46 170.81 236.346C179.496 242.25 187.041 249.76 194.344 257.028C197.656 260.327 201.089 263.736 204.575 266.946C215.789 277.277 224.518 280.154 240.497 278.766C242.836 278.567 245.175 278.345 247.523 278.123C259.986 276.939 272.857 275.709 285.453 277.576C295.949 279.12 305.873 282.733 315.466 286.228C327.967 290.777 340.89 295.487 355.12 295.597C375.952 295.761 410.732 286.668 419.231 266.64C420.487 263.67 421.169 260.491 421.242 257.275C421.737 237.641 404.213 226.701 387.272 216.117C379.339 211.168 371.851 206.493 366.404 201.06C358.065 192.754 361.128 182.306 364.156 175.171C364.589 174.15 365.063 173.096 365.61 171.952C366.192 170.705 366.738 169.502 367.221 168.363Z" fill="white"/>
<path d="M201.643 204.921C205.241 196.44 213.619 191.436 221.724 186.595C224.336 185.032 226.802 183.555 229.076 181.988C239.785 174.591 248.585 166.218 255.179 157.084C258.172 152.957 260.576 148.345 262.893 143.905C266.382 137.213 269.993 130.298 275.712 124.841C283.137 117.759 294.055 115.048 308.174 116.793C320.275 119.899 327.804 124.812 331.232 131.817C333.523 136.491 333.685 141.003 331.731 145.607C329.521 150.817 325.005 155.283 320.638 159.606L318.856 161.368C312.964 167.283 309.357 172.233 307.157 177.417C304.731 183.134 304.096 189.161 305.204 195.883C306.966 206.606 313.883 217.304 323.265 223.786C327.742 226.891 335.893 229.181 344.518 231.604C363.1 236.821 384.163 242.732 382.699 259.328C382.504 260.17 382.236 260.994 381.898 261.79C378.053 270.849 365.703 274.874 355.175 274.841C343.399 274.792 332.523 269.893 324.368 265.623C312.195 259.248 301.819 254.256 288.366 252.928C282.85 252.387 277.192 252.181 271.715 251.984C264.692 251.734 257.438 251.476 250.353 250.485C229.677 247.558 200.923 231.043 200.748 207.559L200.762 207.466C201.003 206.6 201.298 205.75 201.643 204.921V204.921ZM331.132 145.344C333.006 140.926 332.845 136.599 330.653 132.097C327.309 125.281 319.92 120.477 308.058 117.423C294.175 115.715 283.437 118.364 276.167 125.299C270.528 130.683 266.948 137.547 263.478 144.202C261.144 148.663 258.743 153.28 255.712 157.463C249.056 166.66 240.216 175.098 229.444 182.536C227.151 184.117 224.675 185.599 222.053 187.162C214.042 191.949 205.762 196.891 202.246 205.177C201.91 205.967 201.624 206.777 201.389 207.602C201.596 230.686 229.996 246.951 250.434 249.826C257.48 250.814 264.725 251.073 271.722 251.321C277.204 251.516 282.868 251.72 288.421 252.268C301.992 253.619 312.421 258.624 324.659 265.032C332.748 269.269 343.527 274.135 355.162 274.174C365.476 274.211 377.552 270.313 381.277 261.535C381.591 260.789 381.846 260.018 382.037 259.231C383.454 243.237 362.67 237.399 344.337 232.251C335.649 229.81 327.453 227.511 322.888 224.341C313.372 217.749 306.349 206.884 304.561 195.993C303.433 189.132 304.088 182.973 306.558 177.153C308.793 171.886 312.442 166.868 318.402 160.896C318.983 160.307 319.578 159.718 320.18 159.123C324.503 154.85 328.973 150.432 331.132 145.344Z" fill="white"/>
<path d="M233.947 208.257C234.197 207.671 234.479 207.098 234.79 206.541C240.772 195.767 254.978 189.588 265.917 189.058L266.007 189.064C279.952 192.481 285.214 211.319 285.252 222.386C285.087 223.126 284.855 223.849 284.56 224.548C279.76 235.86 260.818 235.522 251.737 232.829C245.573 231.001 237.23 226.395 234.048 219.477C233.219 217.739 232.78 215.833 232.762 213.894C232.745 211.955 233.149 210.03 233.947 208.257V208.257ZM265.896 189.723C255.144 190.261 241.216 196.315 235.362 206.86C235.063 207.397 234.792 207.948 234.55 208.513V208.513C233.79 210.2 233.404 212.031 233.42 213.876C233.436 215.722 233.854 217.536 234.643 219.189C237.755 225.907 245.895 230.4 251.928 232.191C260.808 234.826 279.32 235.219 283.957 224.292C284.225 223.652 284.442 222.992 284.604 222.318C284.557 211.535 279.442 193.079 265.896 189.723V189.723Z" fill="white"/>
</g>
<defs>
<clipPath id="clip0_512_5106">
<rect width="280" height="274" fill="white"/>
</clipPath>
</defs>
</svg>
