<svg width="278" height="372" viewBox="0 0 278 372" fill="none" xmlns="http://www.w3.org/2000/svg">
<g clip-path="url(#clip0_508_5046)">
<path d="M297.759 10.005C278.912 20.6677 280.332 39.6075 281.709 57.9234C282.303 65.8794 282.927 74.1247 281.787 81.375C280.795 87.6999 277.202 93.4865 272.172 96.8555C270.216 98.2127 267.997 99.1319 265.661 99.5527C263.325 99.9735 260.924 99.8864 258.617 99.297C246.468 96.3423 237.009 89.2626 229.7 77.641C215.851 55.5719 193.955 26.9618 163.843 33.2522C156.274 34.8325 151.124 38.2663 148.569 43.4531C142.563 55.5372 151.365 74.857 157.787 88.9586C159.356 92.3917 160.833 95.6401 161.868 98.3017C171.173 122.203 153.323 139.091 135.201 146.263C126.926 149.548 118.294 152.432 109.948 155.229C103.886 157.25 97.6227 159.343 91.5504 161.573L91.4566 161.624C87.5069 164.836 83.2905 167.643 79.2138 170.357C73.2585 174.33 67.0954 178.43 61.6601 183.868C39.1188 206.407 28.5787 228.786 30.3379 250.388C31.1016 259.77 34.5379 276.885 48.9835 286.127C57.3152 291.46 67.252 291.835 76.8599 292.201C78.3024 292.254 79.7328 292.309 81.1496 292.38C96.2377 293.134 106.364 297.379 113.993 306.147C117.048 309.663 119.544 313.47 121.956 317.153C126.417 323.964 130.658 330.395 138.106 335.124C148.103 341.453 161.124 343.035 172.622 344.427C174.183 344.622 175.721 344.808 177.235 345C190.448 346.726 205.789 348.473 220.709 347.869C224.722 347.703 229.273 347.18 234.134 346.606C251.557 344.591 272.558 342.202 283.635 354.753L284.415 354.606C273.243 341.441 251.81 343.89 234.05 345.943C229.224 346.498 224.661 347.024 220.669 347.198C205.805 347.809 190.493 346.043 177.305 344.338C175.794 344.142 174.256 343.949 172.692 343.761C161.252 342.374 148.316 340.802 138.446 334.554C131.1 329.908 126.919 323.528 122.494 316.778C120.07 313.076 117.567 309.254 114.481 305.702C106.725 296.785 96.4562 292.469 81.1725 291.71C79.7512 291.637 78.3181 291.576 76.8733 291.525C67.354 291.167 57.5083 290.792 49.3274 285.557C35.1225 276.472 31.7379 259.587 30.9852 250.329C29.2436 228.931 39.7175 206.729 62.117 184.339C67.5113 178.946 73.6432 174.856 79.5743 170.908C83.643 168.196 87.8554 165.39 91.8203 162.17C97.8701 159.953 104.11 157.869 110.149 155.856C118.508 153.062 127.148 150.18 135.442 146.883C146.118 142.65 154.785 135.972 159.854 128.079C165.677 119.004 166.584 108.625 162.485 98.0633C161.442 95.3821 159.956 92.1271 158.389 88.681C152.033 74.7103 143.309 55.5653 149.16 43.7548C151.635 38.7599 156.622 35.4495 163.987 33.9076C193.697 27.7014 215.403 56.0985 229.146 77.998C236.538 89.7767 246.128 96.954 258.454 99.947C260.848 100.561 263.34 100.653 265.765 100.217C268.19 99.7798 270.493 98.8243 272.521 97.4133C277.704 93.9524 281.402 87.9945 282.42 81.4833C283.574 74.1504 282.949 65.88 282.355 57.9029C280.992 39.795 279.588 21.0713 298.069 10.6166C316.954 -0.0658594 349.084 3.33303 364.191 17.6033C374.263 27.1249 370.29 38.8811 364.49 50.1681C357.677 63.3139 352.134 77.1058 347.937 91.3517C344.666 102.567 345.417 114.349 346.129 125.741C346.861 137.577 347.62 149.816 343.786 161.099C340.793 169.903 333.844 176.604 327.131 183.083C325.774 184.387 324.38 185.732 323.06 187.059C314.705 195.461 306.047 204.585 300.444 215.645C288.258 239.686 295.903 265.151 305.986 289.092C313.948 308.018 330.793 318.435 343.522 323.838C348.189 325.82 353.397 327.296 358.44 328.727C365.775 330.81 373.276 332.937 379.671 336.709L380.638 336.527C374.038 332.474 366.246 330.25 358.609 328.085C353.593 326.661 348.401 325.19 343.771 323.226C331.17 317.867 314.466 307.554 306.591 288.831C296.586 265.04 288.981 239.744 301.044 215.954C306.602 204.982 315.205 195.897 323.537 187.525C324.859 186.211 326.245 184.863 327.602 183.563C334.372 177.031 341.381 170.273 344.423 161.317C348.301 149.911 347.537 137.601 346.804 125.699C346.098 114.359 345.362 102.638 348.589 91.5366C352.777 77.3323 358.305 63.5801 365.097 50.4709C369.011 42.846 372.123 35.0016 370.752 27.7183C370.053 24.0034 368.192 20.4312 364.682 17.1106C349.355 2.63748 316.853 -0.805024 297.759 10.005Z" fill="#3B6149"/>
<path d="M296.618 32.8308C292.226 42.9976 294.168 55.2542 296.031 67.1128C298.646 83.6243 301.11 99.2247 288.15 109.913C271.253 123.857 241.035 113.568 225.958 103.808C221.197 100.767 216.909 97.0165 213.241 92.6823C211.046 90.062 209.573 87.0068 208.143 84.0529C206.931 81.5469 205.679 78.947 203.998 76.6557C199.714 65.3327 188 50.0997 175.299 51.6051C171.274 52.0845 168.55 53.802 167.205 56.7093C164.699 62.1355 167.656 71.0498 171.465 77.0357C172.939 79.3452 174.61 81.6218 176.225 83.8245C181.596 91.1595 187.163 98.7401 186.048 108.61C183.39 132.126 158.656 149.748 135.324 156.777C133.277 157.398 131.249 158.004 129.241 158.596C106.758 165.279 87.3426 171.052 69.3464 187.933C58.2714 198.316 33.4983 225.606 42.492 254.74C48.4102 273.912 64.8102 275.654 80.6686 277.333C84.1072 277.697 87.6686 278.076 91.0977 278.631C101.955 278.972 114.249 279.924 122.691 287.01C128.25 291.668 131.15 298.145 133.957 304.413C136.082 309.106 138.239 313.966 141.53 318.12C154.197 334.126 175.293 336.93 193.901 339.407L195.6 339.635C211.879 341.812 227.864 338.838 243.317 335.963C248.435 335 253.713 334.007 259.031 333.225C268.412 331.813 280.084 330.059 289.079 334.227C295.757 337.33 298.962 344.066 300.819 351.511L301.478 351.387C299.704 344.398 296.386 336.888 289.346 333.624C280.178 329.372 268.397 331.142 258.888 332.574C253.621 333.367 248.321 334.352 243.193 335.308C227.789 338.173 211.86 341.137 195.683 338.975L193.985 338.751C175.495 336.286 154.547 333.5 142.043 317.704C138.79 313.618 136.641 308.799 134.555 304.14C131.708 297.808 128.781 291.256 123.107 286.493C114.506 279.265 102.083 278.308 91.1598 277.971C87.7435 277.417 84.182 277.038 80.7306 276.673C65.0989 275.01 48.907 273.296 43.1212 254.542C34.2364 225.767 58.8143 198.715 69.7967 188.433C87.6922 171.656 107.034 165.905 129.437 159.241C131.444 158.644 133.475 158.06 135.528 157.421C159.063 150.329 184.017 132.514 186.706 108.697C187.851 98.5685 182.213 90.8749 176.757 83.438C175.151 81.2418 173.487 78.9767 172.024 76.682C168.308 70.8427 165.411 62.1995 167.811 56.9999C169.053 54.3183 171.606 52.7256 175.389 52.2791C187.75 50.7955 199.217 65.8138 203.409 76.9391L203.45 77.0241C205.115 79.2722 206.359 81.8566 207.566 84.3511C209.007 87.345 210.504 90.4379 212.748 93.1206C216.465 97.5038 220.808 101.297 225.63 104.372C240.862 114.228 271.422 124.6 288.585 110.438C301.848 99.5156 299.234 82.987 296.704 67.0156C294.847 55.2528 292.923 43.0939 297.237 33.1062C302.249 21.504 315.382 16.5512 326.162 16.789C338.181 17.0549 347.623 23.0298 351.454 32.7612C355.516 43.1234 350.362 56.2182 346.215 66.7392C345.813 67.7501 345.422 68.7295 345.062 69.6777C344.223 71.8199 343.383 73.958 342.544 76.0961C339.032 84.9344 335.406 94.0722 333.387 103.582C331.826 110.97 331.974 118.492 332.121 125.761C332.243 131.603 332.357 137.644 331.586 143.556C329.773 157.459 323.297 167.706 316.591 176.712C314.558 179.437 312.467 182.122 310.253 184.966C297.456 201.403 284.222 218.399 284.878 239.703C282.686 252.253 287.547 267.988 291.45 280.63C292.061 282.621 292.659 284.547 293.204 286.387C293.963 288.966 294.645 291.69 295.363 294.58C297.615 303.601 299.943 312.933 305.238 319.731C311.004 327.114 319.778 329.802 328.266 332.401C330.16 332.984 332.126 333.578 333.988 334.209C338.085 335.848 342.45 337.222 346.665 338.564C349.459 339.442 352.277 340.335 355.049 341.313L356.345 341.07C353.196 339.935 350 338.927 346.844 337.928C342.642 336.613 338.291 335.228 334.197 333.601C332.315 332.953 330.344 332.355 328.445 331.769C320.059 329.205 311.383 326.554 305.75 319.327C300.538 312.644 298.228 303.381 295.992 294.427C295.27 291.534 294.588 288.793 293.824 286.207C293.279 284.368 292.701 282.437 292.069 280.446C288.192 267.871 283.363 252.222 285.519 239.763C284.879 218.633 298.037 201.736 310.763 185.388C312.985 182.543 315.075 179.854 317.107 177.124C323.883 168.051 330.397 157.717 332.231 143.662C333.015 137.684 332.892 131.62 332.773 125.752C332.626 118.521 332.493 111.06 334.01 103.726C336.016 94.2735 339.626 85.1639 343.138 76.3508C343.977 74.2086 344.837 72.0667 345.655 69.9242C346.02 68.9793 346.411 67.9999 346.801 66.9953C350.504 57.6072 355.002 46.2028 353.151 36.3643C352.908 35.0511 352.538 33.7645 352.047 32.5233C348.129 22.526 338.455 16.3967 326.162 16.1276C312.931 15.8285 301.062 22.5447 296.618 32.8308Z" fill="#3B6149"/>
<path d="M315.222 140.746C318.27 156.94 307.362 173.187 297.742 187.518C294.955 191.67 292.323 195.595 290.145 199.333C289.033 201.695 287.871 204.012 286.744 206.254C282.425 214.849 278.347 222.968 277.208 233.415C275.793 246.426 278.193 259.57 280.519 272.285L281.091 275.324C283.707 289.577 286.68 305.726 272.819 315.143C264.662 320.681 255.164 323.521 245.974 326.232C241.996 327.402 237.885 328.635 233.959 330.057C215.19 334.318 187.672 336.332 162.916 321.801C154.813 315.439 150.22 307.338 147.987 295.47C147.757 294.249 147.542 292.929 147.352 291.57C147.174 290.339 146.988 289.195 146.785 288.116C144.533 276.15 139.7 270.07 131.086 268.321C123.611 266.837 114.824 267.092 105.518 267.361C85.342 267.952 64.5225 268.554 53.8535 251.616C52.0851 248.83 50.8612 245.725 50.2492 242.474C46.1686 220.791 70.2775 193.668 87.8527 182.162C99.8592 174.308 113.283 171.057 126.26 167.898C136.158 165.496 146.378 163.017 155.916 158.526C167.351 153.134 177.383 144.994 187.057 137.132C188.886 135.645 190.715 134.167 192.545 132.699C205.255 122.555 214.232 120.078 229.509 122.495C234.203 123.237 238.936 124.188 243.549 125.093C253.616 127.087 264.037 129.154 274.477 129.254C277.749 129.286 281.635 128.639 285.745 127.95C294.732 126.444 304.923 124.737 311.066 130.17L311.127 130.251C313.119 133.465 314.508 137.024 315.222 140.746V140.746ZM148.614 295.351C150.814 307.041 155.331 315.026 163.258 321.244C187.795 335.644 215.144 333.635 233.755 329.413C237.666 327.998 241.787 326.776 245.766 325.589C254.906 322.875 264.36 320.068 272.436 314.583C285.935 305.416 283.012 289.489 280.429 275.436L279.857 272.397C277.522 259.637 275.113 246.44 276.539 233.335C277.692 222.766 281.794 214.597 286.143 205.942C287.266 203.704 288.425 201.392 289.546 199.011C291.733 195.23 294.388 191.3 297.182 187.139C306.726 172.91 317.554 156.789 314.557 140.863C313.857 137.245 312.504 133.785 310.567 130.66C304.656 125.453 294.653 127.146 285.826 128.622C281.688 129.316 277.774 129.968 274.441 129.922C263.939 129.821 253.497 127.75 243.39 125.747C238.805 124.836 234.059 123.901 229.378 123.16C214.318 120.774 205.458 123.217 192.925 133.226C191.089 134.688 189.264 136.169 187.433 137.655C177.714 145.547 167.682 153.704 156.162 159.128C146.569 163.659 136.306 166.151 126.384 168.558C113.457 171.698 100.09 174.938 88.1835 182.732C70.7513 194.139 46.8378 220.981 50.8618 242.363C51.4621 245.531 52.6555 248.556 54.3769 251.273C64.8448 267.891 85.4942 267.287 105.462 266.71C114.808 266.434 123.632 266.176 131.177 267.68C142.721 269.974 145.96 280.368 147.394 287.985C147.599 289.076 147.789 290.215 147.967 291.471C148.173 292.831 148.385 294.135 148.614 295.351Z" fill="#3B6149"/>
<path d="M266.188 173.166C267.892 182.22 263.691 191.027 259.627 199.548C258.319 202.297 257.085 204.893 256.06 207.458C251.244 219.549 248.559 231.396 248.131 242.654C247.926 247.748 248.481 252.918 249.013 257.899C249.816 265.403 250.643 273.159 248.906 280.871C246.65 290.88 239.063 299.188 226.343 305.559C214.548 309.678 205.559 309.761 198.824 305.83C194.327 303.209 191.691 299.542 190.766 294.627C189.72 289.065 191.004 282.845 192.244 276.827L192.751 274.372C194.377 266.184 194.637 260.064 193.596 254.53C192.447 248.427 189.636 243.058 184.989 238.076C177.58 230.126 165.894 225.054 154.492 224.857C149.045 224.753 140.991 227.364 132.469 230.127C114.11 236.08 93.3004 242.832 85.323 228.206C85.0191 227.396 84.7858 226.562 84.626 225.712C82.8059 216.04 90.857 205.846 99.6386 200.04C109.469 193.556 121.237 191.606 130.391 190.642C144.057 189.203 155.461 187.609 167.395 181.26C172.286 178.654 177.111 175.69 181.779 172.819C187.764 169.135 193.945 165.33 200.392 162.23C219.225 153.209 252.312 151.022 265.471 170.474L265.512 170.559C265.79 171.414 266.016 172.284 266.188 173.166V173.166ZM191.412 294.514C192.299 299.23 194.832 302.743 199.15 305.275C205.711 309.096 214.524 309.001 226.091 304.97C238.594 298.699 246.065 290.544 248.273 280.742C249.984 273.135 249.161 265.437 248.361 257.975C247.833 252.968 247.273 247.795 247.477 242.633C247.922 231.288 250.605 219.366 255.45 207.206C256.482 204.619 257.723 202.013 259.039 199.259C263.055 190.835 267.209 182.133 265.545 173.287C265.386 172.444 265.175 171.611 264.914 170.794C251.95 151.693 219.296 153.891 200.69 162.823C194.277 165.904 188.103 169.704 182.14 173.374C177.469 176.251 172.641 179.219 167.715 181.84C155.67 188.235 144.215 189.848 130.477 191.296C121.395 192.251 109.725 194.173 100.019 200.588C91.4133 206.273 83.5207 216.209 85.2842 225.58C85.4359 226.376 85.651 227.158 85.9273 227.919C93.6112 242.019 114.148 235.361 132.261 229.487C140.846 226.705 148.943 224.077 154.499 224.186C166.074 224.401 177.94 229.553 185.463 237.629C190.205 242.715 193.072 248.204 194.241 254.417C195.299 260.041 195.042 266.24 193.39 274.513C193.233 275.327 193.064 276.146 192.893 276.975C191.662 282.928 190.389 289.082 191.412 294.514Z" fill="#3B6149"/>
<path d="M237.449 188.291C237.566 188.917 237.649 189.55 237.698 190.186C238.689 202.47 230.287 215.485 221.475 221.988L221.396 222.033C207.895 226.916 193.076 214.15 186.912 204.959C186.639 204.252 186.431 203.521 186.29 202.776C184.018 190.699 199.973 180.484 209.024 177.694C215.168 175.8 224.666 175.011 231.148 179.007C232.801 179.994 234.223 181.337 235.312 182.942C236.401 184.546 237.13 186.372 237.449 188.291V188.291ZM221.124 221.422C229.776 215.017 238.016 202.259 237.045 190.237C236.997 189.625 236.917 189.016 236.805 188.412V188.412C236.503 186.586 235.81 184.848 234.774 183.321C233.738 181.794 232.385 180.515 230.812 179.576C224.499 175.708 215.233 176.479 209.218 178.331C200.366 181.059 184.739 190.989 186.934 202.655C187.065 203.336 187.25 204.006 187.489 204.657C193.504 213.606 207.988 226.136 221.124 221.422V221.422Z" fill="#3B6149"/>
</g>
<defs>
<clipPath id="clip0_508_5046">
<rect width="278" height="372" fill="white"/>
</clipPath>
</defs>
</svg>
