<?xml version="1.0" encoding="utf-8"?>
<!-- Generator: Adobe Illustrator 26.0.0, SVG Export Plug-In . SVG Version: 6.00 Build 0)  -->
<svg version="1.1" id="Layer_1" xmlns="http://www.w3.org/2000/svg" xmlns:xlink="http://www.w3.org/1999/xlink" x="0px" y="0px"
	 viewBox="0 0 16 16" style="enable-background:new 0 0 16 16;" xml:space="preserve">
<style type="text/css">
	.st0{fill:#3B6149;}
</style>
<path class="st0" d="M10.5,1C8.1,1,6.1,3,6,5.4c0,0,0,0.1,0,0.1v2.4L2.8,5.1C2.7,5,2.6,5,2.5,5C2.4,5,2.2,5.1,2.1,5.1l-1,1
	C1,6.3,1,6.6,1.1,6.8l5,7c0,0,0,0,0,0l0,0C6.2,13.9,6.3,14,6.5,14h6c0.3,0,0.5-0.2,0.5-0.5V9.2c1.2-0.8,2-2.2,2-3.7
	C15,3,13,1,10.5,1z M10.5,2C12.4,2,14,3.6,14,5.5c0,0.9-0.4,1.7-1,2.3V5.5C13,5.2,12.8,5,12.5,5H7.1C7.4,3.3,8.7,2,10.5,2z M7,6h5
	v2.9V13H7V6z M2.5,6.2l3.5,3v2.7L2.2,6.6L2.5,6.2z"/>
</svg>
