<?xml version="1.0" encoding="utf-8"?>
<!-- Generator: Adobe Illustrator 26.0.0, SVG Export Plug-In . SVG Version: 6.00 Build 0)  -->
<svg version="1.1" id="Layer_1" xmlns="http://www.w3.org/2000/svg" xmlns:xlink="http://www.w3.org/1999/xlink" x="0px" y="0px"
	 viewBox="0 0 16 16" style="enable-background:new 0 0 16 16;" xml:space="preserve">
<style type="text/css">
	.st0{fill:#3B6149;}
</style>
<path class="st0" d="M11,1C8.8,1,7,3.5,7,6.5c0,0.8,0.4,1.5,1,2v0c0,1.6,0,2.6-1.5,3.8c-0.6,0.5-0.7,1.5-0.2,2.1
	C6.6,14.8,7.1,15,7.5,15c0.3,0,0.7-0.1,1-0.3C10.8,12.7,11,10.7,11,9h0V8.5c0.6-0.5,1-1.2,1-2c0-0.7-0.3-1.3-0.7-1.7c0,0,0,0,0,0
	C10.5,4,11,1,11,1z M15,5c0,0-1.2,0.2-2.3,0.1C12.9,5.5,13,6,13,6.5c0,0.7-0.2,1.3-0.6,1.9C14,7.7,15,6.4,15,5z M6.1,5
	C4.6,5.1,3,5.6,1.3,7.5C0.8,8.2,0.9,9.1,1.5,9.7c0.3,0.2,0.6,0.3,1,0.3c0.4,0,0.9-0.2,1.2-0.5C4.6,8.4,5.4,8.1,6.4,8
	C6.1,7.6,6,7.1,6,6.5C6,6,6,5.5,6.1,5z M9.5,5.5c0.6,0,1,0.4,1,1s-0.4,1-1,1s-1-0.4-1-1S8.9,5.5,9.5,5.5z M5,6.2c0,0.1,0,0.2,0,0.3
	C5,6.8,5,7,5.1,7.2C4.4,7.5,3.6,7.9,2.9,8.8C2.8,8.9,2.6,9,2.5,9C2.4,9,2.3,9,2.2,8.9C2,8.8,2,8.6,2,8.5s0-0.2,0.1-0.4
	C3.1,7,4.1,6.5,5,6.2z M9.5,10c0,0,0.4,0.1,0.4,0.5c-0.2,1.1-0.7,2.3-2.1,3.4C7.7,14,7.6,14,7.5,14c-0.1,0-0.3-0.1-0.4-0.2
	c-0.2-0.2-0.1-0.5,0.1-0.7c1.1-0.9,1.5-1.7,1.7-2.6C8.9,10.3,9,10,9.5,10z"/>
</svg>
