<?xml version="1.0" encoding="utf-8"?>
<!-- Generator: Adobe Illustrator 26.0.0, SVG Export Plug-In . SVG Version: 6.00 Build 0)  -->
<svg version="1.1" id="Layer_1" xmlns="http://www.w3.org/2000/svg" xmlns:xlink="http://www.w3.org/1999/xlink" x="0px" y="0px"
	 viewBox="0 0 16 16" style="enable-background:new 0 0 16 16;" xml:space="preserve">
<style type="text/css">
	.st0{fill:#3B6149;}
</style>
<path class="st0" d="M11.7,1L11,1.7l0.6,0.6L7.3,6.6L5.9,5.1C5.8,5.1,5.6,5,5.5,5C5.4,5,5.2,5.1,5.1,5.1L3.8,6.4
	C3.2,7.1,2.7,7.9,2.4,8.8C2.2,9.3,2,10,2,10.6c0,0.8,0.1,1.7,0.6,2.6c0,0.1,0.1,0.2,0.2,0.2C3.7,13.9,4.6,14,5.4,14
	c0.7,0,1.4-0.2,1.9-0.4c0.8-0.3,1.6-0.8,2.2-1.4l1.4-1.4c0.2-0.2,0.2-0.5,0-0.7c0,0,0,0,0,0L9.4,8.7l4.3-4.3L14.3,5L15,4.3l-0.6-0.6
	l-2.1-2.1L11.7,1z M12.3,3L13,3.7L7.9,8.8C7.7,9,7.4,9,7.2,8.8C7,8.6,7,8.3,7.2,8.1L12.3,3z M5.5,6.2l1.1,1.1L6.5,7.4
	C5.9,8,5.9,8.9,6.5,9.5c0.6,0.6,1.5,0.6,2.1,0l0.1-0.1l1.1,1.1l-1,1c-0.5,0.5-1.1,0.9-1.8,1.2C6.5,12.9,5.9,13,5.4,13
	c-0.6,0-1.3-0.1-2-0.4C3.1,11.9,3,11.3,3,10.6c0-0.5,0.1-1.1,0.3-1.6C3.6,8.4,4,7.7,4.5,7.2L5.5,6.2z"/>
</svg>
