<?xml version="1.0" encoding="utf-8"?>
<!-- Generator: Adobe Illustrator 26.0.0, SVG Export Plug-In . SVG Version: 6.00 Build 0)  -->
<svg version="1.1" id="Layer_1" xmlns="http://www.w3.org/2000/svg" xmlns:xlink="http://www.w3.org/1999/xlink" x="0px" y="0px"
	 viewBox="0 0 16 16" style="enable-background:new 0 0 16 16;" xml:space="preserve">
<style type="text/css">
	.st0{fill:#3B6149;}
</style>
<path class="st0" d="M13.3,9c0.4-0.2,0.6-0.4,0.8-0.6L14.4,8l-1.6-2c0.3-0.1,0.7-0.4,0.9-0.6l0.2-0.3l-3.4-4.2L8.3,3.5
	C8,3.3,7.7,3.1,7.2,3c-0.3-0.6-1-1-1.7-1S4.1,2.4,3.8,3C2.8,3.1,2,4,2,5c0,0.1,0,0.2,0,0.4C1.4,5.8,1,6.5,1,7.2c0,0.8,0.5,1.6,1.2,2
	C2.1,9.5,2,9.7,2,10c0,1.1,0.9,2,2,2h1v2h1v-2h0.6c0.7,0.6,2,0.9,3.4,1v1h1v-1c1.9-0.1,3.5-0.7,3.9-1.6l0.2-0.3L13.3,9z M3,10
	c0-0.3,0.1-0.5,0.3-0.7l0.6-0.7L3,8.5C2.4,8.4,2,7.8,2,7.2c0-0.5,0.3-1,0.8-1.2l0.5-0.2L3.1,5.4C3,5.3,3,5.1,3,5c0-0.6,0.4-1,1.1-1
	l0.4,0l0.1-0.4C4.7,3.3,5.1,3,5.5,3s0.8,0.3,0.9,0.7L6.6,4L7,4c0.3,0,0.5,0.1,0.7,0.3L7.1,5.1l0.2,0.3c0.2,0.3,0.5,0.5,0.9,0.6
	L6.6,8l0.3,0.3C7,8.6,7.3,8.8,7.7,9L6,11H4C3.4,11,3,10.6,3,10z M10.5,12c-1.6,0-2.8-0.4-3.4-0.8l2.2-2.7L8.6,8.2
	C8.3,8.2,8.1,8.1,7.9,8l2-2.4L9.1,5.3C8.8,5.3,8.6,5.2,8.4,5.1l2.1-2.6l2.1,2.6c-0.2,0.1-0.4,0.2-0.7,0.3l-0.8,0.2l2,2.4
	c-0.2,0.1-0.4,0.2-0.7,0.3l-0.7,0.2l2.2,2.7C13.3,11.6,12.1,12,10.5,12z"/>
</svg>
